<svg xmlns="http://www.w3.org/2000/svg" width="13.24" height="13.31" viewBox="0 0 13.24 13.31">
  <path id="Path_1" data-name="Path 1" d="M10.29,0H3A3,3,0,0,0,0,3v7.31a3,3,0,0,0,3,3H8.26l-.1-.17a1.7,1.7,0,0,0-.43-1.26,5,5,0,0,0-1.55-.89,7.16,7.16,0,0,1-3-1.82,3.69,3.69,0,0,1-.9-2.48A3.45,3.45,0,0,1,3.54,3.87,4.63,4.63,0,0,1,6.65,2.82a4.73,4.73,0,0,1,2.25.53,3.66,3.66,0,0,1,1.52,1.5A4.53,4.53,0,0,1,11,7.05H8.2a2.27,2.27,0,0,0-.41-1.46,1.44,1.44,0,0,0-1.18-.51,1.51,1.51,0,0,0-1.13.43,1.61,1.61,0,0,0-.4,1.15,1.41,1.41,0,0,0,.45,1,5.14,5.14,0,0,0,1.59.94A6.88,6.88,0,0,1,10,10.4a3.92,3.92,0,0,1,.91,2.68v.11a3,3,0,0,0,2.33-2.9V3a3,3,0,0,0-2.95-3Z" transform="translate(0 0)" fill="#3660aa"/>
</svg>
