<svg xmlns="http://www.w3.org/2000/svg" viewBox="0 0 59.55 13.26"><defs><style>.cls-1{fill:#3660aa;}.cls-2{fill:#212c49;}</style></defs><g id="Layer_2" data-name="Layer 2"><g id="Layer_1-2" data-name="Layer 1"><path class="cls-1" d="M10.29,0H3A3,3,0,0,0,0,3v7.31a3,3,0,0,0,3,3H8.26l-.1-.17a1.7,1.7,0,0,0-.43-1.26,5,5,0,0,0-1.55-.89,7.16,7.16,0,0,1-3-1.82,3.69,3.69,0,0,1-.9-2.48A3.45,3.45,0,0,1,3.54,3.87,4.63,4.63,0,0,1,6.65,2.82a4.73,4.73,0,0,1,2.25.53,3.66,3.66,0,0,1,1.52,1.5A4.53,4.53,0,0,1,11,7.05H8.2a2.27,2.27,0,0,0-.41-1.46,1.44,1.44,0,0,0-1.18-.51,1.51,1.51,0,0,0-1.13.43,1.61,1.61,0,0,0-.4,1.15,1.41,1.41,0,0,0,.45,1,5.14,5.14,0,0,0,1.59.94A6.88,6.88,0,0,1,10,10.4a3.92,3.92,0,0,1,.91,2.68s0,.07,0,.11a3,3,0,0,0,2.33-2.9V3A3,3,0,0,0,10.29,0Z"/><path class="cls-2" d="M20,11.11c-1.81,0-3.22-.9-3.28-2.61h2.18a1,1,0,0,0,1,1c.6,0,1-.3,1-.79C21,7.11,16.75,8,16.77,5c0-1.59,1.31-2.48,3.07-2.48S22.91,3.39,23,5H20.78a.92.92,0,0,0-1-.88.75.75,0,0,0-.87.77c0,1.47,4.16.81,4.16,3.62C23.1,9.93,22,11.11,20,11.11Z"/><path class="cls-2" d="M24.37,2.15h2.05V5.23a2.46,2.46,0,0,1,2.06-1C30,4.26,31,5.31,31,7.11V11H29V7.39a1.29,1.29,0,1,0-2.56,0V11H24.37Z"/><path class="cls-2" d="M35.5,11.12a3.28,3.28,0,0,1-3.45-3.44,3.48,3.48,0,0,1,7,0A3.32,3.32,0,0,1,35.5,11.12Zm0-1.78a1.47,1.47,0,0,0,1.42-1.66c0-1.14-.67-1.67-1.39-1.67s-1.4.53-1.4,1.67S34.76,9.34,35.5,9.34Z"/><path class="cls-2" d="M42.15,11h-2V4.33h2V5.44a2.51,2.51,0,0,1,2.1-1.18V6.43h-.56c-1,0-1.54.33-1.54,1.48Z"/><path class="cls-2" d="M45.56,6h-.82V4.33h.82V2.7h2V4.33H49V6H47.61V8.72c0,.39.17.56.62.56H49V11h-1a2.07,2.07,0,0,1-2.36-2.33Z"/><path class="cls-2" d="M53.08,11.12A3.22,3.22,0,0,1,49.7,7.68a3.22,3.22,0,0,1,3.38-3.45,3.16,3.16,0,0,1,3.34,3.34c0,.19,0,.39,0,.6H51.74A1.24,1.24,0,0,0,53,9.45a1.09,1.09,0,0,0,1.07-.65h2.18A3.13,3.13,0,0,1,53.08,11.12ZM51.75,7h2.57a1.16,1.16,0,0,0-1.26-1.15A1.27,1.27,0,0,0,51.75,7Z"/><path class="cls-2" d="M57.5,2.15h2V11h-2Z"/></g></g></svg>